<?xml version="1.0" standalone="no"?>
<!DOCTYPE svg PUBLIC "-//W3C//DTD SVG 20010904//EN"
 "http://www.w3.org/TR/2001/REC-SVG-20010904/DTD/svg10.dtd">
<svg version="1.0" xmlns="http://www.w3.org/2000/svg"
 width="612.000000pt" height="459.000000pt" viewBox="0 0 612.000000 459.000000"
 preserveAspectRatio="xMidYMid meet">

<g transform="translate(0.000000,459.000000) scale(0.100000,-0.100000)"
fill="#000000" stroke="none">
<path d="M2450 3971 c-20 -4 -41 -10 -47 -14 -6 -4 -14 -3 -18 3 -4 6 -43 9
-93 8 l-87 -2 80 -5 c70 -5 76 -7 45 -14 -19 -5 -73 -11 -120 -13 -47 -2 -90
-6 -97 -9 -6 -2 -13 1 -15 7 -3 8 -25 8 -79 -1 -95 -15 -231 -22 -204 -11 34
14 2 11 -56 -6 -30 -9 -74 -26 -99 -39 -25 -12 -70 -28 -101 -34 -43 -9 -69
-23 -111 -59 -89 -75 -117 -118 -138 -214 -10 -42 -19 -59 -36 -66 -14 -7 -21
-18 -19 -29 18 -86 29 -130 36 -138 4 -6 6 -23 5 -37 -3 -24 -1 -26 15 -17 15
8 17 6 12 -8 -6 -15 -4 -16 9 -6 8 7 18 10 21 7 3 -4 -19 -29 -50 -58 -31 -28
-93 -101 -138 -162 -46 -61 -98 -121 -116 -134 -46 -32 -69 -60 -69 -88 0 -14
-35 -72 -80 -135 -86 -118 -109 -174 -108 -262 0 -27 2 -44 5 -37 3 6 9 10 13
7 5 -3 7 -12 4 -20 -3 -8 2 -24 11 -37 l17 -23 -5 30 c-3 17 -11 60 -17 97
-12 65 -12 69 13 120 15 29 56 92 92 141 61 82 66 86 87 75 13 -7 28 -20 35
-28 7 -8 13 -11 13 -6 0 4 -17 23 -37 42 -32 30 -35 36 -25 58 6 13 25 31 42
40 27 13 30 13 20 1 -9 -11 -10 -15 -1 -15 7 0 9 -4 6 -10 -7 -11 42 -26 52
-16 4 3 -3 20 -15 36 l-22 29 73 100 c91 124 136 175 145 166 4 -3 -1 -11 -11
-16 -9 -6 -17 -17 -17 -26 0 -13 6 -11 28 10 16 15 31 25 35 21 3 -3 3 4 0 15
-3 12 -2 21 3 19 5 -1 20 4 33 11 18 10 22 10 16 0 -6 -9 -3 -10 10 -5 18 6
18 6 2 -12 -9 -10 -17 -24 -17 -31 0 -7 -6 -9 -12 -6 -7 4 -4 -1 7 -10 11 -9
19 -21 18 -26 -4 -13 9 -11 31 6 11 8 25 15 32 15 6 0 -18 -30 -55 -67 -36
-36 -56 -58 -43 -48 44 36 32 7 -15 -36 -27 -24 -63 -63 -82 -87 -18 -23 -36
-40 -41 -37 -4 3 -14 -3 -21 -12 -12 -14 -12 -16 0 -9 9 6 12 4 9 -5 -8 -23
-41 -16 -58 13 -13 24 -13 31 -1 50 13 21 13 22 -2 9 -24 -19 -21 -54 8 -85
l25 -28 -41 -51 c-23 -29 -45 -51 -49 -50 -4 1 -7 -5 -6 -15 0 -9 -4 -16 -10
-15 -17 3 -46 -33 -48 -59 -1 -13 -7 -22 -13 -21 -14 3 -55 -51 -46 -60 3 -4
0 -13 -7 -22 -7 -8 -10 -15 -7 -15 4 0 65 78 136 173 131 174 208 261 208 233
0 -8 -4 -13 -8 -11 -4 3 -10 -2 -13 -11 -5 -12 -2 -15 9 -10 10 3 13 2 10 -5
-4 -6 -13 -8 -20 -5 -14 5 -39 -17 -29 -26 3 -4 -2 -21 -12 -40 l-17 -33 22
19 c11 11 21 22 21 26 0 5 14 22 30 40 19 20 27 37 22 44 -12 16 -8 41 6 39 7
-2 12 2 12 8 0 5 5 7 12 3 7 -4 8 -3 4 4 -4 7 11 24 35 42 45 32 57 33 40 2
-12 -22 -4 -36 13 -23 15 11 53 24 41 14 -5 -5 -36 -29 -68 -53 -66 -50 -130
-118 -194 -208 -25 -34 -49 -60 -53 -57 -5 3 -12 0 -16 -6 -5 -8 -3 -9 6 -4
23 14 7 -14 -80 -140 -106 -154 -130 -199 -130 -246 0 -29 6 -42 26 -58 15
-12 36 -21 47 -21 16 0 17 -3 8 -14 -9 -11 -9 -30 -1 -79 11 -61 14 -65 42
-71 17 -3 48 -6 69 -6 31 0 39 4 39 18 0 27 -9 32 -35 22 -26 -10 -35 2 -35
45 0 13 -4 26 -9 30 -13 7 -32 -30 -25 -48 3 -8 -2 -17 -10 -20 -28 -11 -32
41 -6 65 15 14 18 24 11 31 -6 6 -5 17 6 33 l15 24 70 -60 c72 -63 114 -73 57
-14 -18 18 -36 31 -41 28 -4 -3 -8 -1 -8 4 0 5 -11 14 -25 20 -13 6 -31 25
-40 42 -9 17 -20 28 -24 25 -13 -8 7 73 26 103 71 114 348 523 361 534 15 12
16 11 3 -4 -9 -13 -10 -18 -2 -18 7 0 9 -5 5 -11 -4 -7 0 -9 14 -5 14 5 21 1
25 -14 5 -18 10 -20 49 -14 23 4 45 8 47 10 2 2 -9 13 -24 26 -30 26 -29 54 5
98 15 20 21 23 31 13 11 -11 10 -13 -4 -13 -9 0 -23 -13 -32 -29 -13 -27 -13
-31 4 -52 16 -20 21 -21 35 -10 9 7 16 23 16 34 0 11 3 18 6 14 3 -3 6 -26 6
-51 0 -33 4 -46 16 -49 10 -3 -19 -5 -63 -6 -91 -1 -154 -16 -162 -37 -3 -7
-9 -12 -13 -9 -11 7 -60 -52 -78 -95 -9 -21 -15 -66 -15 -110 0 -83 17 -134
74 -216 18 -26 26 -44 18 -40 -8 4 -3 -2 10 -13 13 -12 30 -21 38 -21 13 0 13
-3 3 -15 -11 -13 0 -15 86 -16 55 -1 102 -1 107 0 4 1 5 -34 1 -76 -6 -76 -6
-79 21 -105 15 -16 44 -32 64 -38 20 -5 44 -18 53 -29 16 -19 16 -23 -17 -72
-19 -28 -35 -55 -35 -60 0 -17 -83 -49 -126 -49 -47 0 -101 16 -126 38 -10 8
-29 38 -43 66 -13 28 -24 45 -25 38 -1 -45 83 -143 153 -179 27 -13 46 -28 41
-32 -15 -13 -221 -54 -234 -46 -6 4 -17 0 -23 -8 -7 -8 -24 -17 -39 -21 -21
-5 -31 -2 -40 14 -18 28 -104 30 -93 3 14 -36 14 -53 -1 -53 -25 0 -88 -37
-121 -72 -101 -105 -111 -325 -21 -455 58 -85 113 -105 381 -138 67 -8 123
-15 124 -15 1 0 0 -7 -3 -15 -4 -8 -1 -21 5 -29 6 -7 8 -16 4 -19 -15 -15 34
-5 64 13 37 22 140 40 129 22 -5 -8 -1 -10 9 -6 13 5 15 2 9 -20 -5 -23 -3
-26 19 -26 22 0 26 -6 37 -52 20 -87 28 -94 132 -117 91 -20 314 -41 434 -41
56 0 65 -3 122 -46 34 -25 62 -47 62 -47 0 -1 -33 -3 -73 -4 -60 -2 -150 -18
-337 -59 -25 -6 -82 -28 -110 -43 -24 -13 -25 -41 -1 -41 12 0 21 -4 21 -9 0
-16 51 -21 365 -36 413 -19 1178 -20 1296 -1 48 8 95 18 105 24 11 5 36 12 57
16 21 4 35 11 32 15 -3 5 15 15 39 22 25 7 43 16 40 20 -5 8 68 24 161 35 48
6 55 9 35 15 l-25 7 26 1 c15 1 40 4 57 7 38 8 47 28 101 244 22 85 44 156 50
156 6 1 18 2 26 3 12 1 13 5 5 20 -13 25 -13 41 0 21 8 -12 10 -12 11 5 l0 20
9 -20 c7 -16 9 -12 15 23 6 33 13 44 31 48 14 4 24 14 24 24 0 11 5 22 10 25
9 6 12 2 14 -27 2 -21 18 -28 63 -28 48 0 67 19 78 80 6 34 3 39 -49 88 -31
29 -58 63 -61 75 -10 44 -12 97 -4 97 11 0 10 220 0 305 -7 57 3 115 21 115 4
0 7 15 7 33 -1 21 -3 25 -6 12 -8 -31 -43 -55 -79 -55 -26 0 -32 4 -28 15 4 8
18 18 33 22 14 3 29 11 33 17 5 8 8 7 8 -1 0 -7 4 -13 9 -13 6 0 9 12 7 28 -1
15 -8 26 -15 24 -9 -2 -9 3 -1 17 6 11 6 22 1 25 -5 3 -11 -1 -15 -9 -6 -18
-36 -20 -36 -3 0 9 -3 9 -12 0 -17 -17 -24 -15 -25 8 -2 17 4 20 39 20 29 0
49 -7 64 -21 17 -16 26 -18 41 -11 13 7 24 6 38 -4 26 -19 32 -18 40 7 6 17 9
19 17 8 7 -10 8 -9 4 6 -4 17 4 24 49 44 36 15 86 52 145 108 78 74 92 83 110
73 27 -14 27 3 0 32 -11 12 -20 27 -20 32 1 6 10 0 21 -13 11 -13 22 -21 26
-17 3 3 -2 15 -12 26 -10 11 -16 22 -13 25 8 8 38 -42 35 -57 -2 -7 -2 -10 0
-5 3 4 10 4 16 0 7 -4 5 4 -5 18 -11 17 -13 31 -7 40 14 22 11 35 -16 67 l-25
30 31 12 c16 7 51 33 76 57 44 41 82 53 75 23 -3 -11 0 -11 13 0 26 22 1 28
-101 22 -82 -4 -94 -3 -94 12 0 13 14 16 93 18 50 1 104 1 120 0 15 -1 27 3
27 9 0 5 -4 7 -10 4 -5 -3 -7 0 -4 8 8 23 -24 29 -36 7 -9 -18 -22 -20 -100
-20 -90 0 -101 4 -77 30 6 8 0 5 -14 -8 -15 -13 -33 -20 -42 -17 -14 6 -14 9
1 36 18 31 31 36 50 17 6 -6 13 -10 14 -7 2 2 14 19 27 38 13 19 25 45 27 58
2 20 0 21 -17 13 -25 -14 -106 -98 -127 -132 -16 -27 -18 -28 -114 -28 -54 0
-98 4 -98 8 0 4 6 14 13 22 6 8 0 4 -15 -9 -41 -36 -65 -9 -33 37 15 20 18 21
39 7 23 -15 24 -14 50 34 50 96 28 96 -65 -1 -38 -40 -69 -79 -69 -85 0 -10
-28 -13 -105 -13 -58 0 -105 3 -105 7 0 3 8 16 17 27 14 16 11 15 -9 -3 -28
-24 -58 -23 -58 2 0 23 33 47 50 37 24 -15 36 -12 48 13 6 12 20 36 32 54 l21
31 -23 -2 c-13 -2 -32 -9 -43 -16 -24 -16 -120 -131 -120 -145 -1 -5 17 -20
40 -32 32 -18 57 -22 127 -23 62 0 96 -5 120 -17 18 -10 34 -21 36 -25 2 -4
10 -4 19 -1 10 4 0 13 -32 29 -39 20 -61 24 -141 24 -85 0 -94 2 -80 15 24 24
195 21 243 -5 29 -15 57 -20 118 -20 66 0 87 -4 122 -24 24 -14 45 -21 47 -17
3 4 -15 17 -40 29 -34 17 -63 22 -124 22 -64 0 -80 3 -80 15 0 25 175 21 231
-5 29 -13 66 -20 108 -20 55 0 62 -2 51 -15 -7 -8 -17 -15 -22 -15 -5 0 -20
-12 -32 -27 -20 -23 -32 -28 -75 -28 -34 0 -50 4 -47 11 3 8 -23 5 -72 -8 -78
-20 -152 -18 -179 4 -9 7 -13 7 -13 -1 0 -8 -5 -9 -18 -2 -13 7 -38 6 -80 -4
-62 -15 -252 -16 -252 -2 0 4 5 7 10 7 6 0 10 5 10 11 0 8 -4 8 -14 0 -7 -6
-50 -14 -95 -18 -63 -5 -81 -9 -77 -20 3 -7 -1 -13 -10 -13 -8 0 -12 5 -9 10
5 9 -58 15 -105 11 -11 -1 -11 2 3 13 18 14 16 16 -23 36 -23 12 -44 19 -47
17 -2 -3 10 -11 26 -18 17 -8 31 -17 31 -21 0 -9 -48 -13 -120 -11 -25 1 -37
-1 -28 -3 20 -6 13 -34 -8 -34 -7 0 -27 -15 -44 -34 -30 -32 -70 -53 -70 -36
0 4 10 14 21 22 21 14 21 14 -5 26 -15 7 -25 8 -22 4 3 -5 -6 -14 -19 -20 -14
-7 -25 -16 -25 -21 0 -10 -66 5 -85 18 -5 4 -26 14 -45 21 -97 38 -236 157
-365 315 -104 128 -118 149 -110 174 3 11 -1 33 -9 49 -15 29 -11 42 21 82 10
12 21 -26 11 -43 -5 -10 -7 -22 -3 -25 3 -3 8 3 11 15 6 21 7 21 53 -12 61
-44 85 -71 75 -86 -4 -7 -3 -10 4 -6 5 4 29 -16 52 -43 32 -39 40 -53 31 -64
-8 -10 -4 -23 20 -56 23 -31 33 -39 39 -30 10 17 -38 83 -53 73 -6 -4 -7 -1
-2 6 5 9 27 -6 74 -51 90 -88 137 -123 266 -200 117 -69 155 -86 155 -69 0 6
-7 11 -16 11 -9 0 -43 17 -74 38 -32 20 -85 52 -117 70 -93 52 -204 153 -309
279 -53 65 -114 128 -136 141 -36 22 -74 73 -62 85 3 3 -42 65 -101 138 -117
144 -159 219 -124 219 5 0 7 -5 3 -12 -4 -6 -3 -8 4 -4 7 4 8 17 2 37 -9 31
-9 31 10 14 11 -10 20 -14 20 -8 0 16 41 54 52 47 6 -4 5 3 -2 16 -7 12 -7 20
-2 16 6 -3 16 7 24 24 7 16 17 30 21 30 5 0 5 5 2 10 -3 6 -1 10 4 10 6 0 10
3 9 8 -1 4 4 18 11 31 15 26 25 26 144 -10 45 -13 66 -24 57 -29 -9 -6 -7 -10
9 -15 11 -3 24 -4 28 -2 8 5 36 1 159 -26 82 -19 488 -47 861 -61 73 -2 147
-9 165 -15 18 -5 66 -15 106 -21 47 -8 72 -16 72 -25 0 -7 7 -16 16 -19 10 -4
13 -2 9 7 -4 6 2 2 12 -10 25 -29 114 -82 151 -89 24 -5 33 -2 38 9 3 9 18 19
33 22 46 10 64 71 37 123 -26 50 -129 107 -174 95 -17 -4 -21 4 -31 59 -22
115 -41 160 -95 217 -59 62 -90 77 -166 80 -30 1 -122 6 -205 11 -82 6 -294
19 -470 30 -176 10 -394 24 -485 30 -91 6 -192 12 -225 13 -46 1 -60 6 -60 17
0 13 20 15 125 14 69 0 204 -6 300 -12 96 -7 285 -19 420 -28 135 -8 293 -18
353 -22 83 -6 107 -4 107 5 0 7 -10 13 -23 13 -13 0 -290 18 -617 40 -519 35
-638 40 -930 39 -184 -1 -351 -4 -370 -8z m-590 -431 c0 13 1 13 10 0 6 -9 5
-17 -3 -22 -19 -12 -23 -10 -24 14 -2 18 0 20 7 8 9 -13 10 -13 10 0z m-30
-10 c0 -5 -2 -10 -4 -10 -3 0 -8 5 -11 10 -3 6 -1 10 4 10 6 0 11 -4 11 -10z
m1206 -42 c-11 -15 -16 -18 -16 -7 0 16 21 42 28 34 2 -2 -3 -14 -12 -27z
m-910 -20 l29 -33 -32 29 c-18 17 -33 31 -33 33 0 8 8 1 36 -29z m204 1 c0
-18 -2 -19 -15 -5 -8 8 -15 17 -15 20 0 3 7 6 15 6 9 0 15 -9 15 -21z m25 -20
c-14 -26 -15 -39 -6 -69 14 -47 14 -143 0 -193 -8 -30 -7 -42 3 -55 11 -13 11
-15 -4 -9 -10 3 -20 2 -23 -4 -4 -5 -12 -7 -18 -3 -7 3 -4 -1 6 -9 22 -18 21
-22 -1 -24 -19 -1 -22 15 -9 47 3 8 15 43 27 78 22 68 20 135 -6 199 -11 27
-10 31 2 26 13 -5 16 -1 18 30 1 13 18 29 24 22 2 -2 -4 -18 -13 -36z m2125
26 c205 -16 313 -38 152 -31 -74 4 -94 2 -99 -9 -4 -12 -10 -12 -36 2 -19 10
-65 18 -114 21 -53 3 -87 9 -94 18 -6 8 -8 14 -3 14 5 0 92 -7 194 -15z
m-2775 -31 c13 -5 14 -8 3 -15 -20 -13 -35 -11 -42 6 -6 16 10 20 39 9z m3055
2 c0 -3 -4 -8 -10 -11 -5 -3 -10 -1 -10 4 0 6 5 11 10 11 6 0 10 -2 10 -4z
m-1836 -51 c3 -9 -1 -18 -9 -21 -7 -3 -11 -12 -9 -19 3 -7 0 -16 -6 -20 -10
-6 -12 49 -3 68 7 12 21 8 27 -8z m-1114 -10 c0 -15 25 -21 33 -7 2 4 2 0 -1
-8 -26 -84 -3 -201 51 -258 l32 -34 -58 4 -57 3 0 -127 c0 -79 -4 -128 -10
-128 -6 0 -10 102 -10 285 0 183 4 285 10 285 6 0 10 -7 10 -15z m457 -17 c-3
-8 -6 -5 -6 6 -1 11 2 17 5 13 3 -3 4 -12 1 -19z m-635 -39 c-5 -47 -13 -69
-23 -69 -6 0 -7 13 -4 34 4 20 2 36 -4 40 -6 4 -9 1 -6 -6 3 -7 0 -20 -5 -28
-9 -13 -11 -13 -20 0 -7 11 -5 17 8 22 9 4 13 7 8 7 -5 1 -3 7 3 15 19 22 46
13 43 -15z m567 -60 c-7 -4 -9 -11 -5 -17 7 -12 -49 -125 -71 -143 -8 -7 -1
10 16 37 33 53 51 123 45 182 l-3 37 14 -44 c11 -33 12 -47 4 -52z m70 -67
c-13 -48 -24 -60 -33 -36 -3 8 -2 12 4 9 5 -3 15 13 21 36 10 32 10 45 1 60
-7 12 -8 19 -2 19 5 0 11 15 12 33 1 17 3 7 5 -23 3 -30 -1 -74 -8 -98z m169
92 c12 -4 22 -13 22 -20 0 -17 -17 -18 -23 -1 -3 7 -6 4 -6 -6 -1 -29 -55 -19
-59 11 -3 17 1 22 20 22 13 0 33 -3 46 -6z m-108 -14 c0 -5 -9 -10 -20 -10
-11 0 -20 5 -20 10 0 6 9 10 20 10 11 0 20 -4 20 -10z m616 -57 c10 -16 60
-79 112 -141 l94 -114 -27 -53 c-18 -33 -26 -61 -22 -75 5 -20 4 -20 -16 -7
-30 19 -193 212 -224 265 l-25 42 30 34 c23 27 33 32 43 23 11 -10 11 -9 0 5
-14 18 -9 48 8 48 5 0 17 -12 27 -27z m-726 -53 c0 -5 -5 -10 -11 -10 -5 0 -7
5 -4 10 3 6 8 10 11 10 2 0 4 -4 4 -10z m80 0 c0 -5 -4 -10 -10 -10 -5 0 -10
5 -10 10 0 6 5 10 10 10 6 0 10 -4 10 -10z m70 -80 c0 -13 -5 -18 -15 -14 -11
5 -12 9 -2 20 16 18 17 17 17 -6z m-400 -30 c0 -5 -2 -10 -4 -10 -3 0 -8 5
-11 10 -3 6 -1 10 4 10 6 0 11 -4 11 -10z m-211 -37 c0 -34 -1 -36 -11 -16 -6
12 -8 29 -5 37 11 27 17 18 16 -21z m403 17 c24 0 37 -4 33 -10 -9 -15 -75
-11 -110 6 l-30 14 34 -5 c18 -3 51 -5 73 -5z m-242 -109 l0 -67 -36 4 c-38 5
-35 17 6 25 20 3 19 5 -8 6 l-34 1 4 48 c3 41 6 48 28 53 14 3 28 4 33 2 4 -2
7 -35 7 -72z m1040 -10 c22 -38 47 -77 56 -85 8 -9 13 -16 11 -16 -3 0 10 -16
29 -37 18 -20 30 -41 27 -46 -3 -6 -1 -7 5 -4 11 8 112 -113 116 -138 1 -8 6
-18 11 -22 4 -4 5 -1 1 7 -4 8 8 -3 26 -25 17 -22 73 -81 123 -131 113 -113
191 -155 319 -174 47 -7 86 -15 86 -17 0 -2 -5 -13 -10 -24 -8 -14 -21 -19
-55 -19 -24 0 -46 -4 -50 -9 -3 -6 9 -39 27 -75 36 -73 30 -95 -23 -94 -40 1
-43 -5 -20 -43 12 -19 21 -42 21 -52 0 -10 3 -16 8 -14 4 3 8 -9 8 -26 1 -17
6 -33 13 -35 6 -2 9 -8 5 -13 -3 -5 -1 -9 5 -9 6 0 7 -7 4 -17 -5 -11 -3 -14
6 -8 10 5 11 2 6 -14 -4 -14 -2 -21 6 -21 7 0 9 -3 6 -7 -4 -3 -2 -12 4 -20 6
-7 9 -13 5 -13 -4 0 0 -13 9 -30 8 -16 15 -38 15 -48 0 -11 7 -25 15 -32 8 -7
15 -22 15 -34 1 -11 3 -58 5 -103 3 -56 1 -83 -6 -83 -6 0 -9 9 -6 20 4 16 0
20 -18 20 -13 0 -34 4 -48 9 -13 5 -29 6 -36 1 -18 -10 36 -47 80 -55 18 -3
34 -7 36 -8 6 -7 -10 -47 -19 -47 -5 0 -6 9 -3 20 5 16 2 20 -15 20 -11 0 -34
7 -50 15 -24 12 -29 12 -33 0 -3 -7 1 -19 8 -25 8 -7 12 -17 8 -23 -3 -6 -1
-7 5 -3 7 4 19 3 29 -2 14 -9 14 -10 -5 -16 -12 -4 -27 -4 -33 0 -8 4 -9 3 -5
-4 4 -7 18 -12 31 -12 13 0 27 -5 30 -10 4 -6 11 -7 17 -4 6 4 9 1 7 -5 -3 -7
-8 -12 -13 -11 -5 1 -13 -4 -17 -12 -5 -8 -9 -9 -9 -2 0 7 -7 14 -14 17 -10 4
-13 1 -10 -8 7 -18 -56 -11 -67 7 -4 7 -11 9 -15 5 -9 -8 -102 43 -109 61 -2
7 8 3 24 -9 15 -11 34 -21 42 -22 8 -2 19 -6 25 -10 7 -4 15 0 18 10 9 23 -23
64 -59 76 -35 12 -59 33 -46 41 4 3 18 -3 31 -14 12 -10 28 -16 36 -13 8 3 14
-1 14 -11 0 -11 7 -15 23 -12 21 3 22 7 22 97 0 83 -3 101 -28 151 -15 31 -37
60 -47 63 -16 5 -17 10 -8 31 6 13 18 24 27 24 14 0 14 2 1 10 -13 9 -13 12 3
21 9 5 17 17 17 25 0 8 5 12 10 9 6 -3 10 -2 10 4 0 5 -6 11 -12 14 -7 2 -10
8 -6 12 14 15 29 -7 23 -35 -4 -19 -1 -33 10 -44 22 -22 28 -20 14 5 -6 12 -9
29 -6 40 3 10 -1 26 -8 36 -11 15 -17 15 -39 5 -33 -15 -39 -15 -31 -2 4 6 22
17 41 25 40 17 43 33 9 69 -29 31 -30 32 -32 6 -1 -13 2 -18 10 -14 7 4 9 3 4
-1 -10 -12 -50 -17 -43 -7 3 5 -5 8 -17 8 -16 -1 -23 6 -25 22 -3 18 -7 21
-16 13 -10 -8 -20 -4 -40 15 -32 33 -33 55 -3 80 l22 19 -18 -22 c-30 -35 -19
-57 30 -61 39 -3 42 -5 39 -30 -2 -15 -1 -22 1 -15 2 6 19 15 36 19 48 10 52
15 26 31 -13 8 -17 12 -8 10 18 -6 32 32 44 115 6 39 4 49 -9 54 -10 4 -13 11
-8 18 24 31 20 42 -14 43 -19 1 -36 -3 -39 -8 -3 -4 -12 -6 -20 -3 -7 3 -22 1
-32 -5 -22 -11 -83 13 -143 55 l-35 25 38 -34 38 -35 -32 -23 c-17 -12 -49
-41 -70 -64 -38 -41 -194 -145 -218 -145 -6 0 22 29 62 64 82 72 98 93 117
151 18 56 42 95 54 88 6 -3 -2 8 -18 25 -16 17 -33 29 -37 26 -5 -3 -6 3 -2
13 6 16 5 16 -10 4 -9 -7 -17 -10 -17 -6 0 4 -7 1 -16 -6 -14 -11 -18 -11 -29
4 -15 21 -29 22 -22 3 4 -9 1 -13 -6 -10 -7 2 -17 -6 -22 -18 -7 -16 -18 -23
-36 -23 -14 0 -26 -5 -26 -11 0 -7 7 -10 16 -6 17 6 16 4 -13 -18 -13 -10 -17
-10 -12 -2 12 20 -12 14 -33 -9 -11 -12 -24 -18 -30 -14 -14 8 -14 5 0 -34 6
-17 14 -31 19 -31 9 0 26 -42 35 -85 3 -18 -2 -54 -14 -90 l-19 -60 -1 82 c-1
71 -17 146 -45 215 -5 11 -1 18 14 23 34 11 89 65 112 109 25 48 35 168 15
184 -9 8 -12 -9 -12 -76 0 -71 -4 -94 -21 -122 -12 -19 -27 -34 -33 -32 -7 1
-10 -2 -6 -7 10 -17 -37 -39 -95 -46 -40 -5 -51 -4 -40 4 8 6 31 11 51 11 47
0 62 14 99 88 32 65 37 116 16 157 -5 11 -11 25 -12 30 0 6 -2 13 -4 18 -1 4
-3 13 -4 20 -1 6 -7 11 -14 10 -6 -2 -9 4 -5 12 5 13 7 13 18 -2 7 -10 11 -22
8 -27 -4 -5 0 -6 7 -1 9 5 11 4 6 -3 -4 -7 -1 -12 8 -12 11 0 -1 22 -35 70
-28 39 -56 70 -62 70 -6 0 -8 3 -4 6 3 4 -4 21 -17 38 -37 48 -86 146 -86 170
0 18 16 46 27 46 1 0 20 -31 43 -69z m-1427 43 c-6 -16 -25 -14 -30 2 -2 5 6
10 16 11 14 1 18 -3 14 -13z m1346 -77 c1 -5 -3 -5 -9 -2 -5 3 -10 16 -9 28 0
21 1 21 9 2 5 -11 9 -24 9 -28z m-1493 -19 c-2 -18 -5 -35 -5 -37 -1 -2 -9 3
-18 10 -12 10 -15 10 -9 1 11 -18 -10 -72 -44 -111 -24 -27 -31 -30 -36 -17
-3 9 -11 13 -18 9 -6 -4 -17 -8 -24 -9 -18 -3 -4 17 68 96 44 48 66 66 72 57
5 -8 8 -4 8 11 0 12 2 22 6 22 3 0 3 -15 0 -32z m324 -63 c9 -11 11 -36 7 -83
-4 -45 -3 -59 3 -42 9 23 9 23 7 -7 -2 -17 1 -31 6 -30 5 1 15 -13 21 -31 6
-18 16 -36 22 -40 14 -9 28 -156 14 -147 -5 3 -10 24 -10 46 0 22 -5 39 -11
39 -7 0 -9 -13 -5 -37 3 -21 8 -74 12 -118 l7 -81 -107 8 c-109 7 -152 15
-142 26 4 3 -4 17 -16 30 -13 14 -17 22 -10 17 12 -6 12 -3 2 16 -21 40 -48
70 -54 61 -3 -5 4 -26 15 -46 13 -25 16 -37 7 -34 -7 3 -24 26 -38 53 -21 41
-24 61 -23 128 2 106 42 194 107 232 24 14 51 25 62 25 12 -1 7 -6 -16 -16
-43 -19 -100 -62 -100 -76 0 -7 4 -7 13 1 8 6 17 8 20 4 4 -3 7 -1 7 5 0 13
71 -14 81 -31 4 -5 14 3 23 19 24 44 52 74 71 74 9 0 14 -4 10 -9 -3 -5 -2
-12 3 -15 4 -2 9 9 10 25 2 26 -11 41 -20 22 -1 -5 -21 -5 -43 -2 l-40 6 43 2
c26 0 41 5 37 11 -10 16 11 12 25 -5z m135 -35 c13 0 25 -22 25 -43 -1 -7 -7
-1 -16 13 -14 23 -14 23 -9 3 4 -13 2 -23 -4 -23 -5 0 -15 17 -20 38 -14 47
-13 76 1 40 5 -16 16 -28 23 -28z m1040 8 c6 -12 17 -22 25 -23 19 -3 43 22
30 30 -6 3 -10 1 -10 -5 0 -6 -4 -9 -9 -6 -5 4 -11 1 -13 -6 -3 -8 -6 -7 -10
3 -3 9 -1 16 5 16 7 0 19 3 27 7 10 4 21 -3 33 -23 18 -31 23 -56 8 -47 -5 3
-8 -2 -7 -12 1 -13 -8 -18 -41 -20 -27 -2 -43 1 -43 8 0 15 -23 -8 -44 -45
-15 -27 -16 -27 -10 -5 4 14 9 50 11 80 2 30 6 61 8 67 6 18 29 7 40 -19z
m-1417 3 c10 -6 7 -10 -12 -15 -14 -3 -26 -11 -26 -16 0 -13 17 -13 25 0 3 6
11 10 17 10 6 0 -4 -14 -21 -31 -19 -18 -30 -37 -27 -45 3 -8 2 -13 -2 -10 -4
3 -14 -15 -21 -39 -12 -39 -15 -43 -28 -29 -9 9 -12 21 -7 32 4 9 9 24 10 32
6 35 33 95 43 96 6 1 16 2 22 3 5 0 7 6 4 11 -8 12 5 13 23 1z m767 -71 c10
-11 14 -20 9 -20 -5 0 -15 9 -22 20 -7 11 -11 20 -9 20 2 0 12 -9 22 -20z
m770 -1 c-3 -4 2 -10 11 -13 8 -3 12 -11 9 -17 -5 -7 -14 -4 -28 8 -20 17 -20
17 -13 -2 5 -14 4 -17 -4 -9 -14 14 -4 41 15 41 8 0 12 -4 10 -8z m-313 -51
c-7 -7 -12 -8 -12 -2 0 6 3 14 7 17 3 4 9 5 12 2 2 -3 -1 -11 -7 -17z m117
-20 c1 -5 -10 -8 -24 -8 -25 0 -25 0 -8 26 15 24 17 25 24 8 4 -11 8 -22 8
-26z m-1749 13 c-5 -11 -15 -23 -22 -27 -7 -5 -8 -2 -3 7 21 37 44 55 25 20z
m741 -37 c18 -19 17 -34 -4 -34 -5 0 -6 7 -3 16 3 8 2 12 -4 9 -14 -8 -31 31
-23 52 7 17 8 17 11 -2 2 -11 13 -29 23 -41z m916 34 c-3 -8 -6 -5 -6 6 -1 11
2 17 5 13 3 -3 4 -12 1 -19z m24 -11 c-8 -8 -11 -7 -11 4 0 20 13 34 18 19 3
-7 -1 -17 -7 -23z m-944 1 c-3 -8 -6 -5 -6 6 -1 11 2 17 5 13 3 -3 4 -12 1
-19z m972 -103 c2 -59 -13 -207 -25 -247 -3 -10 -9 -18 -14 -18 -20 0 -37 83
-44 217 l-5 92 27 5 c15 2 -13 3 -63 2 -49 -2 -128 0 -175 4 -70 6 -51 7 106
8 l191 2 2 -65z m32 42 c-10 -9 -11 -8 -5 6 3 10 9 15 12 12 3 -3 0 -11 -7
-18z m-1810 -20 l-23 -22 17 28 c10 15 20 25 23 22 3 -3 -5 -16 -17 -28z
m1656 7 c-3 -3 -12 -4 -19 -1 -8 3 -5 6 6 6 11 1 17 -2 13 -5z m31 -119 c0
-22 -3 -18 -9 15 -4 25 -7 61 -7 80 1 29 2 26 8 -15 5 -27 8 -63 8 -80z m-81
35 c7 0 13 8 13 18 0 12 4 11 13 -8 8 -14 19 -24 25 -22 7 1 12 -9 12 -22 0
-43 -38 -41 -82 5 -42 43 -51 69 -16 45 12 -9 28 -16 35 -16z m-66 -47 c9 -16
19 -44 22 -64 5 -36 5 -37 -21 -30 -22 6 -29 16 -36 49 -14 68 7 95 35 45z
m114 -43 c-28 -12 -37 -12 -30 0 3 6 16 10 28 9 21 0 21 -1 2 -9z m34 -77 c-1
-32 -4 -48 -6 -35 -2 12 -9 22 -14 22 -5 0 -9 16 -9 35 0 24 5 35 15 35 12 0
15 -12 14 -57z m-636 0 c-3 -24 -2 -25 6 -8 9 19 10 19 10 -2 1 -14 -5 -23
-14 -23 -21 0 -30 27 -15 45 17 20 18 19 13 -12z m2057 -8 c0 -15 -21 -12 -30
5 -11 20 -10 21 9 10 12 -6 21 -13 21 -15z m225 15 c-3 -5 -12 -10 -18 -10 -7
0 -6 4 3 10 19 12 23 12 15 0z m430 0 c-3 -5 -12 -10 -18 -10 -7 0 -6 4 3 10
19 12 23 12 15 0z m275 5 c0 -2 -18 -14 -40 -25 -22 -11 -40 -18 -40 -15 0 2
17 13 38 24 42 23 42 23 42 16z m-2940 -19 c0 -8 -4 -17 -8 -20 -4 -2 -8 4 -8
15 0 10 4 19 8 19 4 0 8 -6 8 -14z m2065 4 c3 -5 -1 -10 -9 -10 -9 0 -16 5
-16 10 0 6 4 10 9 10 6 0 13 -4 16 -10z m125 -14 c0 -2 -8 -10 -17 -17 -16
-13 -17 -12 -4 4 13 16 21 21 21 13z m626 -41 c-11 -8 -25 -15 -30 -15 -6 1 0
7 14 15 32 19 40 18 16 0z m-94 -33 c16 -34 16 -38 2 -52 -15 -14 -16 -13 -11
8 3 12 2 20 -3 17 -11 -7 -50 29 -50 46 0 8 11 1 25 -16 14 -17 24 -24 25 -16
0 8 -7 23 -17 33 -13 14 -13 18 -2 18 8 -1 22 -17 31 -38z m-1908 14 c-3 -7 2
-21 11 -30 9 -9 12 -16 6 -16 -6 0 -6 -11 0 -32 5 -18 15 -65 22 -104 l13 -72
-31 -26 c-16 -15 -41 -37 -54 -49 -26 -24 -26 -26 3 46 8 20 8 32 -1 46 -10
16 -9 20 9 24 19 5 20 11 14 59 -4 29 -18 76 -31 105 l-23 52 26 4 c15 2 30 5
34 6 4 0 5 -5 2 -13z m1169 -22 c20 -41 22 -64 4 -64 -13 0 -43 40 -39 53 1 4
-5 7 -13 7 -8 0 -15 5 -15 10 0 18 15 10 42 -22 22 -27 26 -29 21 -11 -3 12
-11 28 -19 34 -15 12 -19 29 -6 29 4 0 15 -16 25 -36z m297 -5 c21 -44 19 -59
-7 -59 -13 0 -13 3 -3 15 7 9 10 18 6 22 -3 3 -6 1 -6 -5 0 -6 -7 -9 -15 -6
-8 4 -15 12 -15 20 0 8 -4 14 -10 14 -5 0 -10 4 -10 10 0 5 8 6 17 3 12 -5 15
-2 10 10 -13 35 13 15 33 -24z m-1550 10 c-14 -26 -35 -37 -26 -14 4 10 2 21
-5 25 -6 4 0 8 15 8 21 0 24 -3 16 -19z m30 -32 c0 -7 -9 -13 -19 -13 -15 0
-17 3 -9 13 6 7 14 13 19 13 5 0 9 -6 9 -13z m581 -84 c-57 -43 -115 -87 -130
-97 l-26 -20 27 30 c15 16 31 45 34 64 7 35 21 53 36 44 13 -8 9 -26 -4 -18
-10 6 -10 4 -1 -6 11 -11 25 -6 80 33 108 74 97 54 -16 -30z m137 59 c9 -6 5
-15 -15 -33 -20 -17 -23 -18 -11 -3 14 16 15 23 6 32 -13 13 0 16 20 4z m-578
-90 c0 -9 -5 -24 -10 -32 -7 -11 -10 -5 -10 23 0 23 4 36 10 32 6 -3 10 -14
10 -23z m-437 -19 c-3 -24 -2 -25 6 -8 9 19 10 19 10 -2 1 -14 -5 -23 -14 -23
-21 0 -30 27 -15 45 17 20 18 19 13 -12z m1001 -7 c18 7 21 -12 6 -36 -11 -17
-21 -8 -38 35 -11 26 -11 28 2 12 8 -10 20 -15 30 -11z m-965 -30 c-9 -8 -10
-7 -5 7 3 10 7 24 7 30 1 7 3 4 6 -7 3 -10 -1 -23 -8 -30z m288 18 c-3 -3 -12
-4 -19 -1 -8 3 -5 6 6 6 11 1 17 -2 13 -5z m628 -14 c-3 -5 -16 -10 -28 -9
-20 1 -20 2 3 9 14 4 26 8 28 9 2 1 0 -3 -3 -9z m-132 -27 c-7 -2 -21 -2 -30
0 -10 3 -4 5 12 5 17 0 24 -2 18 -5z m1334 0 c-4 -3 -2 -12 3 -18 6 -7 8 -20
4 -28 -5 -15 -8 -15 -30 1 -26 19 -33 45 -9 36 8 -4 15 -12 15 -20 0 -8 5 -14
10 -14 15 0 12 11 -7 32 -15 17 -15 18 2 18 10 0 15 -3 12 -7z m-1120 -9 c-3
-3 -12 -4 -19 -1 -8 3 -5 6 6 6 11 1 17 -2 13 -5z m713 -35 c19 -40 19 -59 -1
-59 -5 0 -9 5 -9 12 0 7 -10 22 -22 33 -13 11 -24 27 -26 35 -2 8 8 2 22 -15
28 -33 35 -23 10 13 -8 12 -10 22 -5 22 6 0 20 -19 31 -41z m129 17 c8 -13 10
-29 6 -35 -3 -6 -3 -10 2 -9 4 2 9 -1 10 -7 1 -5 16 -12 33 -15 49 -8 35 -25
-23 -26 -48 0 -53 -3 -69 -33 -10 -21 -19 -28 -23 -20 -6 8 -12 4 -21 -12 -17
-31 -18 -44 -1 -31 6 5 62 10 122 10 71 0 99 -3 80 -8 -16 -4 -67 -8 -112 -9
-65 -1 -83 -4 -83 -15 0 -8 -15 -24 -34 -35 -40 -25 -46 -26 -46 -6 0 8 6 12
13 9 8 -3 25 4 38 15 19 16 21 20 7 21 -9 0 -20 -4 -23 -10 -9 -14 -22 -12
-22 4 0 7 7 13 16 12 9 -1 18 12 24 34 18 74 31 111 39 116 4 3 22 -5 39 -17
l31 -22 -7 24 c-4 13 -12 26 -16 27 -5 2 -9 10 -9 18 0 9 -4 12 -10 9 -5 -3
-10 2 -10 12 1 14 6 12 25 -12 27 -33 34 -23 9 13 -8 12 -11 22 -6 22 5 0 14
-11 21 -24z m-1090 -11 c-13 -7 -26 -21 -30 -31 -7 -16 -8 -15 -9 6 l-2 25 -9
-25 -8 -25 2 25 c1 18 7 24 20 22 9 -2 20 4 23 12 3 8 12 12 21 9 12 -5 11 -9
-8 -18z m166 -25 c4 -6 -1 -10 -10 -10 -9 0 -14 4 -11 9 3 5 -11 3 -32 -4 -33
-12 -38 -11 -44 3 -11 29 -9 44 7 39 8 -4 17 -2 20 4 6 9 58 -21 70 -41z m503
11 c21 -36 20 -51 -1 -51 -5 0 -6 7 -3 16 3 8 2 13 -3 10 -8 -6 -32 17 -46 44
-4 8 4 2 19 -15 28 -33 36 -23 10 13 -8 12 -11 22 -6 22 4 0 18 -17 30 -39z
m-619 -14 c0 -12 -3 -16 -6 -9 -2 6 -11 12 -19 12 -8 0 -14 5 -14 11 0 5 5 7
10 4 6 -3 10 -1 10 5 0 6 5 8 10 5 6 -3 10 -16 9 -28z m381 13 c21 0 40 -4 42
-10 2 -5 18 -10 36 -12 18 -1 31 -7 28 -13 -2 -5 -10 -8 -17 -7 -8 2 -11 0 -7
-4 4 -4 0 -20 -9 -35 -18 -30 -53 -38 -81 -20 -20 12 -10 46 13 46 11 0 19 -6
18 -12 -4 -18 4 -16 27 7 24 24 20 26 -54 29 -32 1 -63 4 -67 7 -14 8 -10 24
6 24 8 0 15 6 16 13 0 10 2 10 6 0 2 -7 22 -13 43 -13z m710 12 c0 -13 -12
-22 -22 -16 -10 6 -1 24 13 24 5 0 9 -4 9 -8z m-2178 -29 c-3 -16 -7 -22 -10
-15 -4 13 4 42 11 42 2 0 2 -12 -1 -27z m1548 17 c13 -8 13 -10 -2 -10 -9 0
-20 5 -23 10 -8 13 5 13 25 0z m316 -8 c11 -16 8 -18 -26 -20 -21 -2 -41 2
-45 8 -3 5 1 10 10 10 9 0 13 5 10 10 -3 6 4 10 17 10 13 0 28 -8 34 -18z
m-829 -14 c-3 -8 -6 -5 -6 6 -1 11 2 17 5 13 3 -3 4 -12 1 -19z m144 -13 c0
-6 -9 -11 -20 -13 -10 -2 -21 -12 -24 -23 -3 -10 -11 -19 -19 -19 -10 0 -9 3
2 10 12 8 10 10 -8 10 -13 0 -20 -4 -17 -10 3 -5 -1 -10 -11 -10 -14 0 -15 -2
-3 -17 12 -16 12 -17 -2 -6 -9 7 -19 10 -22 6 -4 -3 -7 -2 -7 4 0 11 31 34 85
64 33 18 47 19 46 4z m782 -8 c7 4 6 0 -2 -10 -7 -9 -21 -17 -30 -16 -12 0
-12 2 3 8 14 5 16 10 8 15 -7 4 -12 13 -12 19 0 7 5 4 11 -6 6 -10 15 -14 22
-10z m-158 3 c3 -5 15 -10 26 -10 19 0 19 -1 -3 -40 -28 -49 -41 -51 -36 -6 2
19 0 32 -4 30 -4 -3 -8 -11 -8 -19 0 -8 -5 -17 -11 -21 -8 -4 -9 4 -4 27 11
50 25 64 40 39z m-2169 -15 c14 -13 14 -16 -2 -22 -10 -3 -26 -15 -36 -25 -10
-10 -25 -18 -33 -18 -12 0 -7 11 16 40 18 22 34 40 36 40 3 0 11 -7 19 -15z
m1965 -20 c-16 -35 -35 -49 -24 -17 5 15 32 52 38 52 1 0 -5 -16 -14 -35z
m-1130 1 c15 9 10 -2 -6 -16 -13 -10 -15 -9 -14 11 0 13 3 18 6 11 2 -6 9 -10
14 -6z m-279 -26 c28 -17 30 -20 11 -20 -19 0 -53 23 -53 36 0 8 9 4 42 -16z
m945 -18 c-16 -18 -23 -42 -12 -42 3 0 17 11 31 25 14 14 30 25 37 25 7 0 4
-5 -5 -11 -20 -11 -24 -29 -7 -29 6 0 17 -7 26 -15 8 -8 18 -13 23 -10 15 10
20 -43 6 -82 -22 -63 -53 -115 -59 -100 -3 8 1 25 8 38 43 75 55 122 36 134
-16 9 -32 -30 -18 -44 9 -10 8 -11 -5 -6 -13 5 -22 -4 -38 -35 -12 -23 -24
-40 -26 -37 -3 3 3 20 13 39 29 55 43 89 33 83 -6 -4 -13 0 -15 8 -9 21 -111
10 -161 -17 -28 -16 -41 -19 -41 -10 0 7 4 11 9 8 5 -4 12 3 15 15 6 24 68 66
83 56 6 -4 8 -11 5 -16 -12 -18 12 -9 41 16 34 29 44 33 21 7z m156 -16 c3 -8
-1 -17 -9 -20 -8 -3 -14 -15 -14 -26 0 -11 -5 -20 -10 -20 -6 0 -8 16 -6 38 4
32 3 35 -8 20 -7 -10 -18 -18 -25 -18 -6 0 -3 9 6 20 20 23 58 27 66 6z m187
-19 c-1 -21 -1 -21 -15 -3 -8 10 -12 23 -9 28 9 14 24 -2 24 -25z m392 -6 c31
-3 60 -10 65 -14 6 -7 -22 -5 -113 9 -23 3 -36 -2 -54 -21 -24 -25 -60 -34
-60 -14 0 5 4 7 10 4 11 -7 60 23 60 37 0 6 -7 7 -16 4 -9 -4 -13 -2 -8 5 4 6
17 8 33 4 14 -3 52 -10 83 -14z m-952 -21 c0 -4 -6 -13 -14 -19 -11 -9 -15 -8
-20 5 -3 9 -4 20 -1 24 6 10 35 2 35 -10z m743 13 c-7 -2 -19 -2 -25 0 -7 3
-2 5 12 5 14 0 19 -2 13 -5z m-783 -34 c0 -4 -11 -9 -24 -11 -18 -4 -26 0 -29
14 -3 10 -2 16 2 14 4 -3 13 -1 21 4 13 8 29 -3 30 -21z m1090 21 c0 -5 -4
-10 -10 -10 -5 0 -10 5 -10 10 0 6 5 10 10 10 6 0 10 -4 10 -10z m280 -10 c0
-10 -7 -23 -15 -27 -8 -5 -25 -36 -38 -68 -16 -43 -31 -64 -50 -73 -32 -16
-34 -28 -7 -35 16 -4 25 3 40 34 11 21 22 39 24 39 2 0 2 -28 -1 -62 -7 -82
13 -68 26 18 l9 59 1 -75 c0 -41 -4 -93 -10 -115 -6 -22 -14 -67 -18 -100 -5
-43 -17 -75 -41 -112 -18 -29 -34 -53 -36 -53 -5 0 9 33 29 67 19 33 16 67 -7
76 -12 5 -98 -20 -123 -36 -17 -11 -30 18 -25 57 3 24 10 36 25 40 32 8 14 17
-21 10 l-31 -6 -3 -97 -3 -96 -80 -2 c-56 -1 -71 1 -50 7 17 4 52 8 79 9 l49
1 -7 88 c-3 48 -11 89 -16 90 -6 2 -10 8 -10 14 0 20 42 149 47 144 3 -3 14
-1 25 5 15 8 24 7 39 -7 10 -9 22 -14 27 -10 4 4 -1 14 -12 21 -18 13 -15 18
41 89 33 41 63 72 67 68 4 -3 4 2 0 13 -6 15 -4 17 9 12 11 -4 22 1 29 13 16
26 38 26 38 0z m-724 1 c-28 -6 -28 -6 -8 -24 11 -10 26 -32 32 -48 9 -21 20
-29 39 -30 23 -2 24 -2 4 -6 -13 -2 -23 -8 -23 -12 0 -16 27 -40 50 -44 24 -4
24 -4 -3 -6 -23 -1 -28 -5 -25 -23 2 -17 11 -24 31 -26 15 -2 27 -8 27 -14 0
-6 -11 -8 -25 -6 -22 5 -25 2 -25 -24 0 -25 3 -28 25 -22 15 4 25 2 25 -4 0
-6 -10 -12 -22 -14 -13 -2 -24 -11 -26 -20 -3 -14 4 -18 25 -19 l28 -1 -30 -7
c-25 -5 -30 -11 -27 -31 1 -14 2 -38 2 -53 0 -17 4 -26 10 -22 5 3 10 1 10 -5
0 -11 -29 -24 -40 -18 -9 5 -38 -26 -33 -34 2 -5 0 -8 -6 -8 -5 0 -17 -7 -26
-16 -13 -14 -14 -19 -3 -25 9 -6 3 -9 -17 -9 l-29 0 46 48 c40 41 47 55 54
107 23 158 5 277 -57 378 l-29 47 38 -1 c34 -1 35 -2 8 -8z m99 -11 c4 -7 14
-6 28 1 l22 11 -22 -21 -23 -22 -22 21 c-18 16 -19 20 -5 20 8 0 19 -5 22 -10z
m-685 -45 c-6 -8 -9 -19 -5 -25 9 -15 -8 -12 -31 5 -16 12 -16 14 -2 9 11 -4
20 0 24 10 3 9 11 16 16 16 6 0 5 -6 -2 -15z m987 -13 c-10 -10 -14 -22 -10
-27 5 -4 2 -5 -5 -1 -11 6 -10 12 4 27 9 10 19 19 22 19 3 0 -2 -8 -11 -18z
m-2759 -19 c-30 -9 -48 -20 -48 -30 0 -10 -5 -13 -17 -8 -10 4 -27 10 -38 13
-14 4 -1 11 45 23 79 21 124 23 58 2z m1932 -3 c0 -11 -4 -20 -9 -20 -5 0 -7
9 -4 20 3 11 7 20 9 20 2 0 4 -9 4 -20z m562 2 c-17 -11 26 -75 53 -81 27 -5
35 -19 35 -64 0 -23 4 -36 10 -32 15 9 12 -21 -2 -33 -7 -5 -24 -12 -38 -14
-21 -3 -25 -8 -25 -40 0 -20 -4 -34 -9 -30 -5 3 -7 -5 -4 -16 4 -12 2 -20 -2
-17 -4 3 -13 -9 -19 -25 -5 -17 -12 -30 -15 -30 -3 0 1 19 9 41 8 23 15 52 15
66 0 13 5 34 12 46 14 26 28 118 16 111 -4 -3 -8 2 -8 11 0 9 -11 33 -25 53
-29 43 -32 62 -7 62 12 0 14 -3 4 -8z m-1862 -32 c0 -5 -5 -10 -11 -10 -5 0
-7 5 -4 10 3 6 8 10 11 10 2 0 4 -4 4 -10z m31 -29 c-14 -25 -31 -28 -31 -5 0
9 5 12 12 8 7 -4 8 -3 4 4 -10 17 4 36 16 24 6 -6 6 -17 -1 -31z m1461 -27
c18 -41 27 -148 14 -161 -3 -4 -6 18 -6 48 0 33 -9 76 -24 111 -27 66 -14 68
16 2z m-1971 19 c-12 -20 -14 -14 -5 12 4 9 9 14 11 11 3 -2 0 -13 -6 -23z
m1911 5 c-7 -7 -12 -8 -12 -2 0 14 12 26 19 19 2 -3 -1 -11 -7 -17z m8 -23 c0
-2 -10 -9 -22 -15 -22 -11 -22 -10 -4 4 21 17 26 19 26 11z m20 -10 c0 -8 -4
-15 -10 -15 -5 0 -7 7 -4 15 4 8 8 15 10 15 2 0 4 -7 4 -15z m570 -19 c0 -3
-4 -8 -10 -11 -5 -3 -10 -1 -10 4 0 6 5 11 10 11 6 0 10 -2 10 -4z m-1424 -28
c-3 -13 -3 -17 0 -10 9 20 27 14 21 -8 -3 -11 -1 -20 4 -20 5 0 10 12 10 28 2
25 2 25 6 3 6 -29 -6 -42 -34 -35 -24 7 -36 37 -20 53 16 16 19 14 13 -11z
m352 5 c2 -7 -4 -16 -12 -19 -19 -7 -49 14 -40 28 8 13 46 6 52 -9z m1147 8
c7 -13 -25 -94 -41 -104 -20 -12 -6 -34 19 -30 23 4 56 -12 46 -22 -10 -9 -89
6 -83 16 3 5 2 14 -2 21 -5 8 -11 5 -20 -7 -8 -10 -16 -16 -19 -14 -7 8 31
103 44 107 6 2 11 10 11 17 0 20 34 32 45 16z m-650 -11 c-3 -5 -12 -10 -18
-10 -7 0 -6 4 3 10 19 12 23 12 15 0z m28 -59 c-9 -13 -17 21 -13 54 2 12 5 6
9 -15 4 -19 6 -37 4 -39z m526 -5 c-7 -14 -16 -26 -20 -26 -5 0 0 13 9 29 20
36 27 34 11 -3z m-554 4 c-3 -5 -12 -7 -20 -3 -21 7 -19 13 6 13 11 0 18 -4
14 -10z m-1515 -24 c0 -2 -9 -6 -20 -9 -11 -3 -20 -1 -20 4 0 5 9 9 20 9 11 0
20 -2 20 -4z m-463 -38 c-3 -7 -5 -2 -5 12 0 14 2 19 5 13 2 -7 2 -19 0 -25z
m20 10 c-3 -8 -6 -5 -6 6 -1 11 2 17 5 13 3 -3 4 -12 1 -19z m1497 6 c4 -9 4
-19 2 -21 -8 -8 -26 8 -26 23 0 19 16 18 24 -2z m746 -13 c0 -16 -9 -39 -20
-52 l-20 -24 5 28 c12 66 16 77 25 77 6 0 10 -13 10 -29z m167 -3 c-3 -8 -6
-5 -6 6 -1 11 2 17 5 13 3 -3 4 -12 1 -19z m-2005 -23 c-3 -21 0 -35 7 -35 6
0 11 11 11 25 0 28 15 34 24 9 17 -45 -7 -81 -48 -70 -39 10 -46 106 -7 106
14 0 16 -7 13 -35z m100 -12 c1 -17 -4 -43 -12 -57 -11 -21 -20 -26 -49 -24
-35 1 -35 1 -5 5 39 5 57 40 48 92 -5 26 -3 33 4 26 6 -6 12 -25 14 -42z m58
38 c0 -17 -18 -21 -24 -6 -3 9 0 15 9 15 8 0 15 -4 15 -9z m-230 -41 c0 -26
-12 -31 -32 -13 -24 22 -23 29 7 29 16 0 25 -6 25 -16z m1189 -18 c-1 -15 2
-40 6 -57 7 -28 6 -29 -8 -10 -16 22 -22 109 -6 100 5 -4 9 -18 8 -33z m-1532
-39 c-2 -16 -4 -5 -4 22 0 28 2 40 4 28 2 -13 2 -35 0 -50z m709 47 c0 -12 -4
-16 -9 -11 -5 5 -6 14 -3 20 10 15 12 14 12 -9z m745 -12 c1 -22 1 -22 9 2 l8
25 1 -27 c1 -21 -3 -26 -18 -25 -11 0 -17 5 -15 9 3 4 1 8 -5 8 -6 0 -8 7 -5
15 9 23 24 18 25 -7z m-1880 -10 c1 -17 2 -19 6 -5 6 24 23 22 23 -3 0 -28
-30 -38 -46 -16 -13 18 -9 46 7 46 5 0 10 -10 10 -22z m48 -44 c-6 -8 -16 -14
-21 -14 -5 0 -2 7 6 16 9 8 17 27 17 42 l2 27 4 -28 c3 -16 -1 -35 -8 -43z
m1872 33 c-10 -9 -11 -8 -5 6 3 10 9 15 12 12 3 -3 0 -11 -7 -18z m-437 -124
c9 -18 21 -33 27 -33 5 0 3 13 -6 30 -8 16 -18 51 -20 77 l-5 48 14 -50 c8
-28 25 -59 40 -72 32 -27 32 -30 4 -54 -47 -40 -54 -41 -55 -6 -1 18 -8 50
-16 72 -9 22 -16 60 -15 85 l1 45 7 -55 c4 -30 14 -70 24 -87z m828 101 c-8
-14 -9 -13 -9 10 0 18 3 24 9 18 7 -7 7 -16 0 -28z m-1312 22 c0 -3 -4 -8 -10
-11 -5 -3 -10 -1 -10 4 0 6 5 11 10 11 6 0 10 -2 10 -4z m785 -87 c-8 -19 -13
-25 -10 -14 3 10 9 40 13 65 6 40 7 41 10 14 2 -17 -4 -47 -13 -65z m570 82
c3 -5 1 -12 -5 -16 -5 -3 -10 1 -10 9 0 18 6 21 15 7z m100 -61 c-3 -5 -1 -20
5 -34 7 -20 16 -26 39 -26 16 0 33 5 36 10 3 6 12 10 18 10 7 0 3 -7 -7 -15
-26 -19 -70 -19 -86 0 -14 17 -40 20 -40 4 0 -6 5 -20 11 -32 12 -21 11 -21
-8 -4 -39 34 -60 14 -23 -23 15 -15 16 -20 5 -20 -8 0 -19 9 -25 20 -17 31
-42 26 -35 -7 l6 -28 -15 25 c-8 14 -12 29 -8 35 3 5 -2 4 -12 -4 -11 -9 -16
-24 -13 -38 2 -12 0 -20 -4 -17 -17 10 -10 61 9 67 9 2 26 8 36 13 15 6 17 4
11 -7 -5 -8 -5 -11 1 -6 5 5 9 12 9 16 0 5 15 20 33 35 17 16 30 31 27 36 -3
4 4 6 15 3 11 -3 18 -9 15 -13z m60 -11 c4 -6 13 -8 21 -5 8 3 14 1 14 -4 0
-6 -6 -10 -14 -10 -22 0 -46 11 -46 21 0 12 17 11 25 -2z m720 0 c4 -6 1 -9
-6 -8 -8 1 -27 -3 -42 -9 -32 -13 -64 -16 -53 -4 7 6 68 28 88 31 4 1 10 -4
13 -10z m-1058 -61 c-3 -8 -6 -5 -6 6 -1 11 2 17 5 13 3 -3 4 -12 1 -19z
m-357 -48 c-80 -74 -108 -95 -118 -86 -4 4 2 12 13 19 11 6 32 23 47 39 14 15
29 28 33 28 3 0 20 14 37 30 16 17 35 30 41 30 7 0 -17 -27 -53 -60z m1654 34
c10 -26 7 -34 -14 -34 -12 0 -20 -6 -19 -12 3 -24 -1 -38 -11 -38 -5 0 -7 7
-4 15 4 8 1 15 -6 15 -6 0 -8 5 -5 10 3 6 1 10 -4 10 -6 0 -11 6 -11 14 0 9
10 13 29 12 20 -1 27 2 24 11 -3 7 -1 13 5 13 5 0 13 -7 16 -16z m-1310 -10
c3 -8 2 -12 -4 -9 -6 3 -10 10 -10 16 0 14 7 11 14 -7z m356 12 c0 -2 -7 -7
-16 -10 -8 -3 -12 -2 -9 4 6 10 25 14 25 6z m-2021 -63 c2 -2 2 -6 -1 -9 -9
-9 -85 33 -92 51 -4 11 7 8 42 -11 26 -15 49 -29 51 -31z m1773 45 c-7 -7 -12
-21 -12 -32 0 -25 -5 -18 -14 17 -5 23 -3 27 16 27 17 0 19 -3 10 -12z m1058
-40 c0 -10 5 -18 11 -18 5 0 7 5 4 10 -3 6 1 10 9 10 9 0 16 -7 16 -15 0 -8
-8 -15 -18 -15 -10 0 -23 -5 -30 -12 -9 -9 -12 -7 -12 9 0 11 -3 36 -6 54 -5
32 -5 33 10 15 9 -11 16 -28 16 -38z m-1116 27 c-4 -8 -8 -15 -10 -15 -2 0 -4
7 -4 15 0 8 4 15 10 15 5 0 7 -7 4 -15z m916 5 c-14 -4 -36 -8 -50 -8 -22 0
-22 1 5 8 17 4 39 8 50 8 16 0 15 -2 -5 -8z m-2188 -22 c-7 -7 -12 -8 -12 -2
0 14 12 26 19 19 2 -3 -1 -11 -7 -17z m623 12 c-28 -12 -37 -12 -30 0 3 6 16
10 28 9 21 0 21 -1 2 -9z m555 0 c0 -5 -5 -10 -11 -10 -5 0 -7 5 -4 10 3 6 8
10 11 10 2 0 4 -4 4 -10z m920 -61 l0 -26 -171 -12 c-94 -7 -173 -11 -175 -8
-6 5 182 25 254 27 15 0 22 6 22 19 0 32 20 35 21 4 2 -27 2 -27 7 -3 l5 25 8
-25 c5 -16 6 -8 3 25 -5 48 -4 49 10 25 8 -14 15 -37 16 -51z m-2068 24 c-6
-3 -9 -9 -6 -15 4 -6 -2 -5 -15 1 -11 7 -21 14 -21 17 0 3 4 3 9 0 5 -3 12 2
15 11 5 13 9 14 19 3 9 -10 9 -13 -1 -17z m2326 6 c3 -11 2 -11 -7 1 -9 13
-11 13 -11 -2 0 -10 5 -18 12 -18 22 0 0 -12 -29 -15 -103 -12 -213 -16 -213
-8 0 5 15 7 34 5 19 -2 43 1 53 7 17 10 16 10 -4 11 -12 0 -24 4 -27 9 -4 5
28 12 70 16 60 6 78 5 85 -6 7 -11 9 -10 9 4 0 21 22 18 28 -4z m-618 -61 c0
-23 -4 -28 -22 -27 -13 0 -18 3 -11 6 8 3 11 19 7 51 -5 46 -5 46 10 22 8 -14
15 -37 16 -52z m-2160 22 c25 -25 25 -32 0 -55 -23 -21 -59 -21 -205 -1 l-90
12 32 17 c18 9 54 17 80 18 26 0 64 7 83 14 50 19 77 18 100 -5z m1151 -17
c10 3 19 1 19 -4 0 -5 -5 -9 -11 -9 -8 0 -8 -5 1 -15 7 -8 16 -12 21 -9 11 6
12 -16 1 -32 -4 -6 -25 -14 -47 -18 -55 -10 -244 -6 -272 5 -14 5 -45 9 -69 9
-60 0 -49 14 23 29 32 7 63 17 68 21 6 4 20 11 32 14 22 7 22 6 8 -21 -25 -47
-21 -51 63 -55 83 -4 94 -2 72 12 -12 8 -13 13 -2 30 17 28 15 32 -8 18 -23
-15 -38 -4 -19 14 13 12 22 13 53 9 4 0 1 -12 -8 -25 -17 -27 -9 -40 14 -25 8
5 20 9 25 8 6 0 -1 -6 -15 -14 -24 -14 -24 -14 -3 -15 13 0 27 9 34 21 8 15 8
19 0 15 -6 -4 -11 -3 -11 3 0 6 -8 8 -17 4 -17 -6 -17 -5 0 14 9 11 18 26 18
34 1 8 3 6 6 -4 3 -13 11 -17 24 -14z m959 -8 c0 -20 -5 -25 -25 -25 -14 0
-25 2 -25 4 0 2 -3 11 -6 20 -3 9 -1 16 6 16 6 0 8 -4 5 -10 -3 -5 1 -10 10
-10 11 0 15 5 11 15 -3 9 0 15 9 15 9 0 15 -10 15 -25z m-750 -56 l0 -29 -72
1 c-61 1 -67 3 -35 9 21 4 43 12 50 19 16 16 25 14 30 -6 3 -10 5 -3 6 15 1
41 21 33 21 -9z m-60 15 c0 -2 -9 -4 -21 -4 -11 0 -18 4 -14 10 5 8 35 3 35
-6z m325 -14 c4 -6 -11 -10 -37 -9 -36 1 -39 2 -18 9 36 11 48 11 55 0z m885
-30 c0 -28 -13 -40 -24 -22 -7 12 5 52 15 52 5 0 9 -13 9 -30z m-992 13 c-16
-2 -40 -2 -55 0 -16 2 -3 4 27 4 30 0 43 -2 28 -4z m-1584 -9 c23 -9 20 -27
-3 -19 -13 4 -21 1 -23 -9 -2 -12 -7 -13 -18 -5 -11 8 -12 12 -2 16 6 2 10 9
6 14 -6 10 17 12 40 3z m2216 -37 c0 -5 -4 -5 -10 -2 -5 3 -10 14 -10 23 0 15
2 15 10 2 5 -8 10 -19 10 -23z m-783 -52 c8 -8 19 -13 24 -10 11 8 11 -6 0
-23 -5 -8 -21 -12 -37 -10 -22 2 -30 9 -32 27 -2 15 0 21 7 17 6 -4 11 -2 11
3 0 15 9 14 27 -4z"/>
<path d="M1810 3130 c0 -5 6 -10 14 -10 8 0 18 5 21 10 3 6 -3 10 -14 10 -12
0 -21 -4 -21 -10z"/>
<path d="M3140 2536 c0 -2 8 -10 18 -17 15 -13 16 -12 3 4 -13 16 -21 21 -21
13z"/>
<path d="M3199 2456 c17 -21 22 -58 9 -73 -13 -17 -4 -28 14 -17 7 5 16 9 21
10 4 1 9 2 12 3 7 1 -54 91 -62 91 -3 0 0 -6 6 -14z m41 -60 c0 -2 -8 -10 -17
-17 -16 -13 -17 -12 -4 4 13 16 21 21 21 13z"/>
<path d="M3292 2423 c-16 -20 -19 -30 -10 -40 8 -11 14 -9 29 8 21 25 22 29
11 47 -6 9 -14 5 -30 -15z"/>
<path d="M3616 1761 c-4 -6 2 -19 14 -31 24 -24 25 -21 6 15 -8 15 -17 22 -20
16z"/>
<path d="M3710 1701 c0 -6 4 -13 10 -16 6 -3 7 1 4 9 -7 18 -14 21 -14 7z"/>
<path d="M3642 1652 c-23 -16 13 -33 60 -30 30 2 43 7 43 18 0 17 -81 26 -103
12z"/>
<path d="M3735 1610 c-4 -6 -19 -9 -33 -6 -15 3 -33 2 -40 -2 -20 -14 5 -29
61 -37 43 -7 47 -5 47 13 0 25 -25 48 -35 32z"/>
<path d="M3680 1550 c-16 -10 5 -30 41 -40 50 -15 59 -13 59 14 0 21 -5 24
-46 28 -25 2 -49 1 -54 -2z"/>
<path d="M3676 1491 c-8 -12 63 -51 92 -51 14 0 20 7 20 25 0 19 -6 25 -23 25
-12 0 -36 3 -53 6 -17 3 -32 1 -36 -5z"/>
<path d="M3632 1354 c9 -9 21 -15 27 -13 6 2 -2 10 -17 17 -25 11 -25 11 -10
-4z"/>
<path d="M3657 1293 c-12 -11 -8 -23 8 -23 8 0 15 7 15 15 0 16 -12 20 -23 8z"/>
<path d="M1730 2616 c0 -8 4 -17 9 -20 5 -4 7 3 4 14 -6 23 -13 26 -13 6z"/>
<path d="M1754 2555 c0 -14 4 -25 9 -25 10 0 9 38 -2 44 -5 3 -8 -5 -7 -19z"/>
<path d="M1414 2746 c4 -10 1 -25 -5 -33 -7 -7 -9 -16 -6 -19 3 -3 10 4 17 15
8 16 8 26 0 39 -11 16 -11 15 -6 -2z"/>
<path d="M2912 2060 c0 -14 2 -19 5 -12 2 6 2 18 0 25 -3 6 -5 1 -5 -13z"/>
<path d="M4340 2206 c0 -9 5 -16 10 -16 6 0 10 4 10 9 0 6 -4 13 -10 16 -5 3
-10 -1 -10 -9z"/>
<path d="M4138 1923 c7 -3 16 -2 19 1 4 3 -2 6 -13 5 -11 0 -14 -3 -6 -6z"/>
<path d="M4370 1461 c0 -5 7 -15 17 -22 15 -13 15 -12 4 9 -12 23 -21 28 -21
13z"/>
<path d="M4264 1449 c-3 -6 -2 -15 3 -20 5 -5 9 -1 9 11 0 23 -2 24 -12 9z"/>
<path d="M3872 1320 c0 -19 2 -27 5 -17 2 9 2 25 0 35 -3 9 -5 1 -5 -18z"/>
<path d="M4011 1504 c0 -11 3 -14 6 -6 3 7 2 16 -1 19 -3 4 -6 -2 -5 -13z"/>
<path d="M2068 3953 c23 -2 61 -2 85 0 23 2 4 4 -43 4 -47 0 -66 -2 -42 -4z"/>
<path d="M1948 3943 c12 -2 30 -2 40 0 9 3 -1 5 -23 4 -22 0 -30 -2 -17 -4z"/>
<path d="M1848 3933 c6 -2 18 -2 25 0 6 3 1 5 -13 5 -14 0 -19 -2 -12 -5z"/>
<path d="M3400 3228 c0 -7 -38 -53 -84 -103 -47 -49 -92 -102 -101 -117 -15
-26 -14 -28 16 -63 43 -49 72 -45 119 17 19 26 43 62 54 80 l19 33 -32 -35
c-18 -19 -30 -27 -27 -17 3 9 0 28 -6 42 -9 20 -7 33 8 67 10 24 24 49 31 56
13 13 18 52 8 52 -3 0 -5 -6 -5 -12z m-91 -214 c6 4 8 12 5 18 -4 7 -2 8 5 4
9 -6 9 -11 0 -22 -9 -11 -8 -14 3 -14 10 0 5 -11 -16 -34 -23 -25 -36 -31 -51
-26 -28 10 -30 34 -4 69 20 27 24 29 34 14 7 -9 17 -13 24 -9z"/>
<path d="M3256 2995 c-10 -15 -16 -31 -13 -38 2 -6 11 4 20 22 21 42 16 51 -7
16z"/>
<path d="M1313 3124 c-31 -24 -130 -144 -119 -144 3 0 24 25 47 55 25 33 48
54 55 51 7 -3 16 -1 19 4 9 15 22 12 22 -5 0 -8 -4 -12 -9 -9 -10 7 -10 -7 1
-24 6 -10 15 -4 35 22 26 35 30 55 11 68 -17 12 -28 9 -62 -18z"/>
<path d="M4080 3130 c0 -5 7 -10 15 -10 8 0 15 5 15 10 0 6 -7 10 -15 10 -8 0
-15 -4 -15 -10z"/>
<path d="M933 3100 c13 -19 32 -48 42 -65 17 -29 17 -30 -1 -9 -11 12 -32 38
-48 57 -20 26 -35 36 -52 35 -25 -2 -25 -2 -4 -18 11 -8 28 -29 37 -45 32 -60
42 -81 53 -110 6 -16 14 -25 18 -20 4 6 19 16 35 24 15 8 27 19 27 24 0 10
-40 60 -100 127 l-31 35 24 -35z"/>
<path d="M4380 3120 c-21 -7 -21 -8 -5 -9 11 0 27 4 35 9 18 11 5 11 -30 0z"/>
<path d="M4208 3113 c6 -2 18 -2 25 0 6 3 1 5 -13 5 -14 0 -19 -2 -12 -5z"/>
<path d="M4545 3110 c-25 -11 1 -11 35 0 20 6 21 8 5 8 -11 0 -29 -3 -40 -8z"/>
<path d="M4615 3100 c-22 -5 -14 -7 30 -8 33 0 119 -4 190 -7 72 -4 127 -4
123 0 -13 14 -291 26 -343 15z"/>
<path d="M3382 3079 c-19 -30 -11 -32 11 -3 10 13 14 24 10 24 -5 0 -14 -9
-21 -21z"/>
<path d="M1300 3000 c-12 -16 -19 -30 -16 -30 2 0 14 14 26 30 12 17 19 30 16
30 -2 0 -14 -13 -26 -30z"/>
<path d="M1259 2943 c-13 -16 -12 -17 4 -4 9 7 17 15 17 17 0 8 -8 3 -21 -13z"/>
<path d="M920 2942 c0 -18 22 -62 32 -62 16 0 8 37 -12 55 -11 10 -20 13 -20
7z"/>
<path d="M1229 2903 c-13 -16 -12 -17 4 -4 9 7 17 15 17 17 0 8 -8 3 -21 -13z"/>
<path d="M1020 2870 c0 -5 5 -10 11 -10 5 0 7 5 4 10 -3 6 -8 10 -11 10 -2 0
-4 -4 -4 -10z"/>
<path d="M1225 2830 c-3 -5 -1 -10 4 -10 6 0 11 5 11 10 0 6 -2 10 -4 10 -3 0
-8 -4 -11 -10z"/>
<path d="M3197 2819 c7 -7 15 -10 18 -7 3 3 -2 9 -12 12 -14 6 -15 5 -6 -5z"/>
<path d="M3245 2820 c-4 -6 -3 -16 3 -22 13 -13 23 4 13 21 -7 10 -10 10 -16
1z"/>
<path d="M3198 2765 c-16 -13 -24 -26 -20 -29 11 -7 55 29 51 42 -2 6 -16 0
-31 -13z"/>
<path d="M1005 2734 c-9 -15 -12 -23 -6 -20 11 7 35 46 28 46 -3 0 -12 -12
-22 -26z"/>
<path d="M650 2694 c0 -17 30 -87 36 -82 2 3 -5 25 -16 49 -11 24 -20 39 -20
33z"/>
<path d="M969 2683 c-13 -16 -12 -17 4 -4 9 7 17 15 17 17 0 8 -8 3 -21 -13z"/>
<path d="M4189 2644 c-12 -13 -18 -27 -15 -33 4 -6 1 -9 -6 -6 -14 5 -83 -76
-83 -97 0 -7 20 -23 45 -35 36 -18 62 -23 133 -23 58 0 95 -5 110 -14 33 -21
67 -29 67 -17 0 6 -8 11 -17 11 -10 0 -27 7 -37 15 -14 11 -47 15 -113 15 -90
0 -93 1 -93 23 0 23 -20 62 -20 40 0 -19 -30 -16 -37 3 -8 22 28 57 50 48 12
-4 16 -13 12 -28 -4 -13 0 -10 11 9 9 17 22 33 28 37 6 4 8 8 3 8 -4 0 -1 13
8 30 19 37 19 36 -5 36 -11 0 -30 -10 -41 -22z"/>
<path d="M1278 2609 c-10 -16 -14 -27 -9 -24 5 3 8 -6 7 -19 -2 -17 1 -23 10
-19 8 3 13 21 12 49 0 24 -1 44 -2 44 0 0 -9 -14 -18 -31z"/>
<path d="M3337 2584 c-18 -25 -18 -25 8 -59 14 -19 27 -35 29 -35 1 0 2 13 1
29 -1 21 2 28 12 24 7 -3 13 0 13 6 0 6 7 8 17 4 10 -4 5 6 -12 25 -34 38 -44
39 -68 6z"/>
<path d="M5295 2601 c-3 -5 -1 -12 5 -16 5 -3 10 1 10 9 0 18 -6 21 -15 7z"/>
<path d="M732 2539 c24 -36 44 -66 44 -65 1 1 -2 19 -6 41 -4 22 -8 33 -9 25
-1 -9 -14 0 -37 25 -34 39 -34 38 8 -26z"/>
<path d="M3871 2515 c-56 -69 -57 -74 -11 -113 16 -13 91 -8 120 8 9 5 -4 6
-30 3 -38 -5 -43 -4 -34 8 6 8 25 33 43 56 43 56 48 83 15 83 -13 0 -24 5 -24
10 0 26 -31 4 -79 -55z m69 -43 c0 -11 -43 -52 -54 -52 -32 1 -37 17 -16 53
21 35 22 36 46 21 13 -9 24 -19 24 -22z"/>
<path d="M1249 2563 c-1 -5 -1 -12 0 -17 1 -5 -4 -13 -11 -17 -9 -6 -7 -8 7
-7 13 1 20 10 21 25 2 20 -14 34 -17 16z"/>
<path d="M4070 2529 c0 -5 5 -7 10 -4 6 3 10 8 10 11 0 2 -4 4 -10 4 -5 0 -10
-5 -10 -11z"/>
<path d="M4028 2480 c-24 -28 -25 -30 -7 -30 11 0 34 -8 52 -17 22 -12 67 -19
142 -23 61 -4 119 -10 130 -14 20 -8 20 -7 1 8 -15 12 -43 16 -109 16 -76 0
-99 4 -144 25 -29 14 -53 28 -53 32 0 3 8 12 18 19 9 7 12 14 7 14 -6 0 -22
-13 -37 -30z"/>
<path d="M4208 2493 c7 -3 16 -2 19 1 4 3 -2 6 -13 5 -11 0 -14 -3 -6 -6z"/>
<path d="M4278 2493 c12 -2 30 -2 40 0 9 3 -1 5 -23 4 -22 0 -30 -2 -17 -4z"/>
<path d="M3560 2456 c0 -2 8 -10 18 -17 15 -13 16 -12 3 4 -13 16 -21 21 -21
13z"/>
<path d="M840 2419 c1 -19 7 -45 15 -59 9 -18 10 -29 3 -37 -7 -9 -7 -13 3
-13 7 0 26 -15 41 -32 l29 -33 -6 30 c-4 17 -16 40 -27 52 -14 15 -19 29 -14
47 4 18 0 32 -19 52 l-25 27 0 -34z"/>
<path d="M1307 2436 c-4 -10 -3 -15 3 -11 13 8 13 -5 0 -25 -5 -8 -10 -10 -10
-5 0 6 -9 11 -20 12 -14 1 -25 -10 -37 -35 -9 -20 -24 -42 -32 -48 -14 -11
-14 -15 -1 -40 37 -74 69 -83 110 -33 18 22 38 38 44 36 7 -3 13 1 13 9 0 7
-4 11 -8 9 -4 -3 -5 5 -1 17 3 12 7 17 10 10 2 -6 10 -12 18 -12 9 0 3 15 -19
43 -17 23 -39 53 -48 67 -14 21 -16 22 -22 6z"/>
<path d="M3615 2415 c22 -19 106 -63 90 -48 -5 5 -32 22 -60 37 -27 15 -41 20
-30 11z"/>
<path d="M4473 2413 c15 -2 37 -2 50 0 12 2 0 4 -28 4 -27 0 -38 -2 -22 -4z"/>
<path d="M4610 2406 c0 -2 9 -6 20 -9 11 -3 18 -1 14 4 -5 9 -34 13 -34 5z"/>
<path d="M4905 2400 c3 -5 8 -10 11 -10 2 0 4 5 4 10 0 6 -5 10 -11 10 -5 0
-7 -4 -4 -10z"/>
<path d="M3720 2357 c0 -3 12 -12 26 -22 15 -9 23 -12 20 -6 -7 11 -46 35 -46
28z"/>
<path d="M1533 2224 c-3 -9 -1 -31 4 -49 7 -20 7 -37 2 -42 -6 -6 -1 -17 11
-28 26 -23 26 -69 -1 -96 l-20 -20 28 -11 c29 -11 29 -11 20 -63 -10 -54 -5
-85 12 -85 5 0 9 10 9 23 -5 77 1 98 33 111 19 8 27 16 20 20 -6 4 -20 2 -31
-4 -26 -14 -26 -6 0 20 22 22 27 78 10 110 -7 13 -5 26 5 47 8 15 15 39 14 53
0 20 -3 17 -14 -15 -8 -22 -15 -41 -15 -42 0 -9 -30 -1 -30 7 0 7 -6 7 -19 1
-16 -9 -20 -7 -25 14 -4 14 -2 34 4 45 8 14 8 20 0 20 -6 0 -13 -7 -17 -16z"/>
<path d="M1465 2209 c-4 -11 -5 -23 -2 -26 3 -2 8 5 12 16 3 12 11 18 17 15 7
-4 8 -2 4 4 -11 18 -24 14 -31 -9z"/>
<path d="M1503 2086 c9 -7 17 -23 17 -34 0 -12 -8 -26 -17 -31 -17 -10 -16
-10 2 -11 31 0 40 12 40 53 0 35 -2 37 -30 37 -27 -1 -28 -2 -12 -14z"/>
<path d="M1412 2055 c0 -16 2 -22 5 -12 2 9 2 23 0 30 -3 6 -5 -1 -5 -18z"/>
<path d="M1437 2073 c-13 -12 -7 -33 8 -33 8 0 15 5 15 10 0 6 -5 10 -11 10
-5 0 -7 5 -4 10 7 11 2 13 -8 3z"/>
<path d="M1002 2045 c-7 -8 -24 -15 -37 -15 -14 0 -25 -4 -25 -10 0 -5 -6 -10
-13 -10 -7 0 -13 -10 -14 -21 -2 -20 -1 -20 11 -4 8 11 18 15 26 10 7 -5 11
-4 8 1 -9 14 44 14 57 0 9 -8 9 -15 1 -23 -41 -44 -42 -43 45 -43 l82 0 -23
20 c-13 11 -33 20 -46 20 -28 0 -64 43 -57 70 6 24 3 25 -15 5z"/>
<path d="M1304 2045 c-9 -23 14 -45 26 -25 5 8 8 19 7 24 -6 17 -27 18 -33 1z"/>
<path d="M1650 2021 c0 -5 6 -14 14 -20 11 -9 15 -7 19 9 4 15 0 20 -14 20
-10 0 -19 -4 -19 -9z"/>
<path d="M1243 2012 c-12 -2 -27 -10 -33 -18 -7 -8 -19 -14 -26 -14 -27 0 -11
-59 17 -64 8 -1 24 -6 37 -10 14 -5 29 -3 37 4 12 10 15 10 15 -2 0 -8 23 -47
51 -87 44 -62 55 -72 78 -69 39 5 39 40 0 99 -23 33 -40 47 -54 46 -16 -2 -20
4 -20 28 0 27 -3 30 -35 31 -19 1 -37 -2 -40 -7 -3 -5 -11 0 -18 11 -10 17 -8
21 14 33 29 15 16 26 -23 19z m-5 -52 c3 -9 -3 -11 -22 -8 -14 3 -26 1 -26 -5
0 -6 -3 -7 -7 -3 -9 9 27 38 41 33 5 -2 12 -9 14 -17z m92 -40 c0 -21 -15 -27
-25 -10 -7 12 2 30 16 30 5 0 9 -9 9 -20z"/>
<path d="M1360 2013 c0 -6 -3 -18 -6 -27 -7 -18 4 -20 26 -6 13 8 13 11 -2 27
-10 9 -18 12 -18 6z"/>
<path d="M1444 2006 c-3 -8 3 -31 14 -51 15 -30 20 -34 25 -21 4 9 3 15 -2 12
-5 -3 -14 7 -19 24 -9 24 -8 31 6 40 16 9 16 9 -1 10 -10 0 -20 -6 -23 -14z"/>
<path d="M1720 2011 c0 -5 9 -12 19 -16 23 -7 36 -35 17 -35 -7 0 -16 3 -20 7
-7 8 -36 13 -36 7 0 -2 14 -11 31 -20 26 -13 33 -14 40 -2 14 21 6 53 -14 52
-9 -1 -17 2 -17 7 0 5 -4 9 -10 9 -5 0 -10 -4 -10 -9z"/>
<path d="M965 1980 c-3 -5 -12 -7 -20 -3 -10 3 -15 -1 -15 -12 0 -9 4 -14 9
-11 5 4 11 2 13 -3 5 -14 48 7 48 24 0 16 -25 21 -35 5z"/>
<path d="M1486 1915 c-7 -18 27 -55 51 -55 13 0 10 7 -13 32 -16 18 -30 34
-30 36 -1 2 -4 -4 -8 -13z"/>
<path d="M1687 1893 c3 -7 0 -13 -6 -13 -6 0 -11 -5 -11 -10 0 -6 13 -4 30 5
36 19 39 33 6 31 -14 0 -22 -6 -19 -13z"/>
</g>
</svg>
